<mxfile host="app.diagrams.net" modified="2022-05-01T21:39:40.456Z" agent="5.0 (Windows NT 10.0; Win64; x64) AppleWebKit/537.36 (KHTML, like Gecko) Chrome/100.0.4896.127 Safari/537.36" etag="CjHi_ZgmsSyL5JsFLHT7" version="17.5.0" type="github">
  <diagram id="qQbdFs2Rh_HyMQOkhjEr" name="Page-1">
    <mxGraphModel dx="1481" dy="739" grid="1" gridSize="10" guides="1" tooltips="1" connect="1" arrows="1" fold="1" page="1" pageScale="1" pageWidth="850" pageHeight="1100" math="1" shadow="0">
      <root>
        <mxCell id="0" />
        <mxCell id="1" parent="0" />
        <mxCell id="JYu8liV_9Jnrk--Q1Ytg-1" value="&lt;font style=&quot;font-size: 40px&quot;&gt;$$\partial _{ENCODING} ^{POSITIONAL}$$&lt;/font&gt;" style="text;html=1;align=center;verticalAlign=middle;resizable=0;points=[];autosize=1;strokeColor=none;fillColor=none;" vertex="1" parent="1">
          <mxGeometry x="-60" y="175" width="800" height="30" as="geometry" />
        </mxCell>
        <mxCell id="JYu8liV_9Jnrk--Q1Ytg-2" value="VS" style="text;html=1;align=center;verticalAlign=middle;resizable=0;points=[];autosize=1;strokeColor=none;fillColor=none;fontSize=40;" vertex="1" parent="1">
          <mxGeometry x="285" y="255" width="70" height="50" as="geometry" />
        </mxCell>
        <mxCell id="JYu8liV_9Jnrk--Q1Ytg-4" value="&lt;font style=&quot;font-size: 40px&quot;&gt;$$\partial _{ENCODING} ^{Position-based}$$&lt;/font&gt;" style="text;html=1;align=center;verticalAlign=middle;resizable=0;points=[];autosize=1;strokeColor=none;fillColor=none;" vertex="1" parent="1">
          <mxGeometry x="-70" y="340" width="820" height="30" as="geometry" />
        </mxCell>
        <mxCell id="JYu8liV_9Jnrk--Q1Ytg-5" value="$$&amp;lt;T_1&amp;gt;$$" style="text;html=1;align=center;verticalAlign=middle;resizable=0;points=[];autosize=1;strokeColor=none;fillColor=none;fontSize=40;" vertex="1" parent="1">
          <mxGeometry x="120" y="485" width="220" height="50" as="geometry" />
        </mxCell>
        <mxCell id="JYu8liV_9Jnrk--Q1Ytg-6" value="$$&amp;lt;T_2&amp;gt;$$" style="text;html=1;align=center;verticalAlign=middle;resizable=0;points=[];autosize=1;strokeColor=none;fillColor=none;fontSize=40;" vertex="1" parent="1">
          <mxGeometry x="350" y="485" width="220" height="50" as="geometry" />
        </mxCell>
        <mxCell id="JYu8liV_9Jnrk--Q1Ytg-8" value="$$&amp;lt;T_3&amp;gt;$$" style="text;html=1;align=center;verticalAlign=middle;resizable=0;points=[];autosize=1;strokeColor=none;fillColor=none;fontSize=40;" vertex="1" parent="1">
          <mxGeometry x="240" y="600" width="220" height="50" as="geometry" />
        </mxCell>
        <mxCell id="JYu8liV_9Jnrk--Q1Ytg-9" value="" style="endArrow=none;dashed=1;html=1;dashPattern=1 3;strokeWidth=2;fontSize=40;strokeColor=#FF0000;curved=1;" edge="1" parent="1">
          <mxGeometry width="50" height="50" relative="1" as="geometry">
            <mxPoint x="260" y="485" as="sourcePoint" />
            <mxPoint x="420" y="485" as="targetPoint" />
            <Array as="points">
              <mxPoint x="340" y="450" />
            </Array>
          </mxGeometry>
        </mxCell>
        <mxCell id="JYu8liV_9Jnrk--Q1Ytg-10" value="" style="endArrow=none;dashed=1;html=1;dashPattern=1 3;strokeWidth=2;fontSize=40;curved=1;strokeColor=#FF0000;exitX=0.51;exitY=1.106;exitDx=0;exitDy=0;exitPerimeter=0;" edge="1" parent="1" source="JYu8liV_9Jnrk--Q1Ytg-5">
          <mxGeometry width="50" height="50" relative="1" as="geometry">
            <mxPoint x="262.5" y="530" as="sourcePoint" />
            <mxPoint x="322.5" y="620" as="targetPoint" />
            <Array as="points">
              <mxPoint x="262.5" y="600" />
            </Array>
          </mxGeometry>
        </mxCell>
        <mxCell id="JYu8liV_9Jnrk--Q1Ytg-11" value="" style="endArrow=none;dashed=1;html=1;dashPattern=1 3;strokeWidth=2;fontSize=40;curved=1;strokeColor=#FF0000;entryX=0.636;entryY=0.4;entryDx=0;entryDy=0;entryPerimeter=0;exitX=0.415;exitY=1.049;exitDx=0;exitDy=0;exitPerimeter=0;" edge="1" parent="1" source="JYu8liV_9Jnrk--Q1Ytg-6" target="JYu8liV_9Jnrk--Q1Ytg-8">
          <mxGeometry width="50" height="50" relative="1" as="geometry">
            <mxPoint x="410" y="530" as="sourcePoint" />
            <mxPoint x="490" y="620" as="targetPoint" />
            <Array as="points">
              <mxPoint x="410" y="600" />
            </Array>
          </mxGeometry>
        </mxCell>
      </root>
    </mxGraphModel>
  </diagram>
</mxfile>
